M48
; DRILL file {KiCad 5.1.7-a382d34a8~88~ubuntu20.04.1} date Sun Jul  4 15:14:16 2021
; FORMAT={-:-/ absolute / inch / decimal}
; #@! TF.CreationDate,2021-07-04T15:14:16-05:00
; #@! TF.GenerationSoftware,Kicad,Pcbnew,5.1.7-a382d34a8~88~ubuntu20.04.1
FMAT,2
INCH
T1C0.0157
T2C0.0374
T3C0.0394
T4C0.0512
%
G90
G05
T1
X6.6289Y-4.4035
X6.8514Y-4.2077
X7.1181Y-4.2992
X7.2638Y-5.0679
X7.4587Y-5.0581
X7.5374Y-4.0128
X7.5738Y-4.125
X7.5915Y-4.0541
X7.936Y-4.5059
X7.9557Y-5.1024
X8.1211Y-4.4439
T2
X7.9685Y-5.2608
X7.9685Y-5.3593
X7.9685Y-5.4577
X6.9459Y-5.0138
X6.9459Y-5.1122
X6.9459Y-5.2106
X6.9459Y-5.3091
X6.7825Y-3.8199
X6.7825Y-3.9183
X6.7825Y-4.0167
X8.1132Y-3.7963
X8.1132Y-3.8947
X8.1132Y-3.9931
X8.1132Y-4.0915
T3
X7.9587Y-4.8533
X7.9587Y-4.9518
T4
X7.2539Y-5.2697
X7.2539Y-5.4665
X7.7461Y-5.2697
X7.7461Y-5.4665
T0
M30
