%TF.GenerationSoftware,KiCad,Pcbnew,5.1.7-a382d34a8~88~ubuntu20.04.1*%
%TF.CreationDate,2021-07-04T15:14:18-05:00*%
%TF.ProjectId,led-backlight,6c65642d-6261-4636-9b6c-696768742e6b,rev?*%
%TF.SameCoordinates,Original*%
%TF.FileFunction,Paste,Top*%
%TF.FilePolarity,Positive*%
%FSLAX46Y46*%
G04 Gerber Fmt 4.6, Leading zero omitted, Abs format (unit mm)*
G04 Created by KiCad (PCBNEW 5.1.7-a382d34a8~88~ubuntu20.04.1) date 2021-07-04 15:14:18*
%MOMM*%
%LPD*%
G01*
G04 APERTURE LIST*
%ADD10R,2.000000X1.500000*%
%ADD11R,2.000000X3.800000*%
%ADD12C,1.143000*%
%ADD13O,1.016000X2.032000*%
%ADD14O,2.748280X1.998980*%
%ADD15R,0.800000X0.900000*%
G04 APERTURE END LIST*
D10*
%TO.C,U1*%
X208525000Y-109300000D03*
X208525000Y-113900000D03*
X208525000Y-111600000D03*
D11*
X214825000Y-111600000D03*
%TD*%
%TO.C,C1*%
G36*
G01*
X205199576Y-109700000D02*
X203350424Y-109700000D01*
G75*
G02*
X203100000Y-109449576I0J250424D01*
G01*
X203100000Y-108625424D01*
G75*
G02*
X203350424Y-108375000I250424J0D01*
G01*
X205199576Y-108375000D01*
G75*
G02*
X205450000Y-108625424I0J-250424D01*
G01*
X205450000Y-109449576D01*
G75*
G02*
X205199576Y-109700000I-250424J0D01*
G01*
G37*
G36*
G01*
X205200001Y-112775000D02*
X203349999Y-112775000D01*
G75*
G02*
X203100000Y-112525001I0J249999D01*
G01*
X203100000Y-111699999D01*
G75*
G02*
X203349999Y-111450000I249999J0D01*
G01*
X205200001Y-111450000D01*
G75*
G02*
X205450000Y-111699999I0J-249999D01*
G01*
X205450000Y-112525001D01*
G75*
G02*
X205200001Y-112775000I-249999J0D01*
G01*
G37*
%TD*%
D12*
%TO.C,U2*%
X192913803Y-98735813D03*
X190373803Y-98735813D03*
X192913803Y-96195813D03*
X190373803Y-96195813D03*
D13*
X192925000Y-113200000D03*
X190375000Y-113200000D03*
D14*
X183508120Y-96882180D03*
X183508120Y-99422180D03*
X183508120Y-101962180D03*
X183508120Y-104502180D03*
X183508120Y-107042180D03*
X183508120Y-109582180D03*
X183508120Y-112122180D03*
X199672680Y-112122180D03*
X199672680Y-109582180D03*
X199672680Y-107042180D03*
X199672680Y-104502180D03*
X199672680Y-101962180D03*
X199672680Y-99422180D03*
X199672680Y-96882180D03*
%TD*%
D10*
%TO.C,U3*%
X189375000Y-121575000D03*
X189375000Y-126175000D03*
X189375000Y-123875000D03*
D11*
X195675000Y-123875000D03*
%TD*%
%TO.C,R2*%
G36*
G01*
X177725000Y-105575001D02*
X177725000Y-104674999D01*
G75*
G02*
X177974999Y-104425000I249999J0D01*
G01*
X178500001Y-104425000D01*
G75*
G02*
X178750000Y-104674999I0J-249999D01*
G01*
X178750000Y-105575001D01*
G75*
G02*
X178500001Y-105825000I-249999J0D01*
G01*
X177974999Y-105825000D01*
G75*
G02*
X177725000Y-105575001I0J249999D01*
G01*
G37*
G36*
G01*
X175900000Y-105575001D02*
X175900000Y-104674999D01*
G75*
G02*
X176149999Y-104425000I249999J0D01*
G01*
X176675001Y-104425000D01*
G75*
G02*
X176925000Y-104674999I0J-249999D01*
G01*
X176925000Y-105575001D01*
G75*
G02*
X176675001Y-105825000I-249999J0D01*
G01*
X176149999Y-105825000D01*
G75*
G02*
X175900000Y-105575001I0J249999D01*
G01*
G37*
%TD*%
%TO.C,R1*%
G36*
G01*
X177650000Y-111650001D02*
X177650000Y-110749999D01*
G75*
G02*
X177899999Y-110500000I249999J0D01*
G01*
X178425001Y-110500000D01*
G75*
G02*
X178675000Y-110749999I0J-249999D01*
G01*
X178675000Y-111650001D01*
G75*
G02*
X178425001Y-111900000I-249999J0D01*
G01*
X177899999Y-111900000D01*
G75*
G02*
X177650000Y-111650001I0J249999D01*
G01*
G37*
G36*
G01*
X175825000Y-111650001D02*
X175825000Y-110749999D01*
G75*
G02*
X176074999Y-110500000I249999J0D01*
G01*
X176600001Y-110500000D01*
G75*
G02*
X176850000Y-110749999I0J-249999D01*
G01*
X176850000Y-111650001D01*
G75*
G02*
X176600001Y-111900000I-249999J0D01*
G01*
X176074999Y-111900000D01*
G75*
G02*
X175825000Y-111650001I0J249999D01*
G01*
G37*
%TD*%
D15*
%TO.C,Q1*%
X177250000Y-107225000D03*
X178200000Y-109225000D03*
X176300000Y-109225000D03*
%TD*%
%TO.C,C6*%
G36*
G01*
X185275000Y-127000000D02*
X185275000Y-126050000D01*
G75*
G02*
X185525000Y-125800000I250000J0D01*
G01*
X186025000Y-125800000D01*
G75*
G02*
X186275000Y-126050000I0J-250000D01*
G01*
X186275000Y-127000000D01*
G75*
G02*
X186025000Y-127250000I-250000J0D01*
G01*
X185525000Y-127250000D01*
G75*
G02*
X185275000Y-127000000I0J250000D01*
G01*
G37*
G36*
G01*
X183375000Y-127000000D02*
X183375000Y-126050000D01*
G75*
G02*
X183625000Y-125800000I250000J0D01*
G01*
X184125000Y-125800000D01*
G75*
G02*
X184375000Y-126050000I0J-250000D01*
G01*
X184375000Y-127000000D01*
G75*
G02*
X184125000Y-127250000I-250000J0D01*
G01*
X183625000Y-127250000D01*
G75*
G02*
X183375000Y-127000000I0J250000D01*
G01*
G37*
%TD*%
%TO.C,C5*%
G36*
G01*
X185675001Y-121525000D02*
X183824999Y-121525000D01*
G75*
G02*
X183575000Y-121275001I0J249999D01*
G01*
X183575000Y-120449999D01*
G75*
G02*
X183824999Y-120200000I249999J0D01*
G01*
X185675001Y-120200000D01*
G75*
G02*
X185925000Y-120449999I0J-249999D01*
G01*
X185925000Y-121275001D01*
G75*
G02*
X185675001Y-121525000I-249999J0D01*
G01*
G37*
G36*
G01*
X185675001Y-124600000D02*
X183824999Y-124600000D01*
G75*
G02*
X183575000Y-124350001I0J249999D01*
G01*
X183575000Y-123524999D01*
G75*
G02*
X183824999Y-123275000I249999J0D01*
G01*
X185675001Y-123275000D01*
G75*
G02*
X185925000Y-123524999I0J-249999D01*
G01*
X185925000Y-124350001D01*
G75*
G02*
X185675001Y-124600000I-249999J0D01*
G01*
G37*
%TD*%
%TO.C,C4*%
G36*
G01*
X169849999Y-109100000D02*
X171700001Y-109100000D01*
G75*
G02*
X171950000Y-109349999I0J-249999D01*
G01*
X171950000Y-110175001D01*
G75*
G02*
X171700001Y-110425000I-249999J0D01*
G01*
X169849999Y-110425000D01*
G75*
G02*
X169600000Y-110175001I0J249999D01*
G01*
X169600000Y-109349999D01*
G75*
G02*
X169849999Y-109100000I249999J0D01*
G01*
G37*
G36*
G01*
X169849999Y-106025000D02*
X171700001Y-106025000D01*
G75*
G02*
X171950000Y-106274999I0J-249999D01*
G01*
X171950000Y-107100001D01*
G75*
G02*
X171700001Y-107350000I-249999J0D01*
G01*
X169849999Y-107350000D01*
G75*
G02*
X169600000Y-107100001I0J249999D01*
G01*
X169600000Y-106274999D01*
G75*
G02*
X169849999Y-106025000I249999J0D01*
G01*
G37*
%TD*%
%TO.C,C3*%
G36*
G01*
X165349999Y-109100000D02*
X167200001Y-109100000D01*
G75*
G02*
X167450000Y-109349999I0J-249999D01*
G01*
X167450000Y-110175001D01*
G75*
G02*
X167200001Y-110425000I-249999J0D01*
G01*
X165349999Y-110425000D01*
G75*
G02*
X165100000Y-110175001I0J249999D01*
G01*
X165100000Y-109349999D01*
G75*
G02*
X165349999Y-109100000I249999J0D01*
G01*
G37*
G36*
G01*
X165349999Y-106025000D02*
X167200001Y-106025000D01*
G75*
G02*
X167450000Y-106274999I0J-249999D01*
G01*
X167450000Y-107100001D01*
G75*
G02*
X167200001Y-107350000I-249999J0D01*
G01*
X165349999Y-107350000D01*
G75*
G02*
X165100000Y-107100001I0J249999D01*
G01*
X165100000Y-106274999D01*
G75*
G02*
X165349999Y-106025000I249999J0D01*
G01*
G37*
%TD*%
%TO.C,C2*%
G36*
G01*
X204725000Y-114900000D02*
X204725000Y-113950000D01*
G75*
G02*
X204975000Y-113700000I250000J0D01*
G01*
X205475000Y-113700000D01*
G75*
G02*
X205725000Y-113950000I0J-250000D01*
G01*
X205725000Y-114900000D01*
G75*
G02*
X205475000Y-115150000I-250000J0D01*
G01*
X204975000Y-115150000D01*
G75*
G02*
X204725000Y-114900000I0J250000D01*
G01*
G37*
G36*
G01*
X202825000Y-114900000D02*
X202825000Y-113950000D01*
G75*
G02*
X203075000Y-113700000I250000J0D01*
G01*
X203575000Y-113700000D01*
G75*
G02*
X203825000Y-113950000I0J-250000D01*
G01*
X203825000Y-114900000D01*
G75*
G02*
X203575000Y-115150000I-250000J0D01*
G01*
X203075000Y-115150000D01*
G75*
G02*
X202825000Y-114900000I0J250000D01*
G01*
G37*
%TD*%
M02*
