%TF.GenerationSoftware,KiCad,Pcbnew,5.1.7-a382d34a8~88~ubuntu20.04.1*%
%TF.CreationDate,2021-07-04T15:14:18-05:00*%
%TF.ProjectId,led-backlight,6c65642d-6261-4636-9b6c-696768742e6b,rev?*%
%TF.SameCoordinates,Original*%
%TF.FileFunction,Legend,Top*%
%TF.FilePolarity,Positive*%
%FSLAX46Y46*%
G04 Gerber Fmt 4.6, Leading zero omitted, Abs format (unit mm)*
G04 Created by KiCad (PCBNEW 5.1.7-a382d34a8~88~ubuntu20.04.1) date 2021-07-04 15:14:18*
%MOMM*%
%LPD*%
G01*
G04 APERTURE LIST*
%ADD10C,0.120000*%
%ADD11C,0.100000*%
%ADD12C,0.127000*%
%ADD13C,0.066040*%
%ADD14C,0.150000*%
%ADD15C,0.101600*%
%ADD16O,2.100000X1.800000*%
%ADD17O,2.050000X1.800000*%
%ADD18C,1.243000*%
%ADD19O,1.116000X2.132000*%
%ADD20O,2.848280X2.098980*%
%ADD21O,3.148000X1.950000*%
G04 APERTURE END LIST*
D10*
X214000000Y-144000000D02*
X165000000Y-144000000D01*
X165000000Y-118000000D02*
X214000000Y-118000000D01*
X165000000Y-118000000D02*
X165000000Y-144000000D01*
X214000000Y-118000000D02*
X214000000Y-144000000D01*
%TO.C,U1*%
X213585000Y-115010000D02*
X213585000Y-113750000D01*
X213585000Y-108190000D02*
X213585000Y-109450000D01*
X209825000Y-115010000D02*
X213585000Y-115010000D01*
X207575000Y-108190000D02*
X213585000Y-108190000D01*
%TO.C,J4*%
X211460000Y-124525000D02*
X211460000Y-128335000D01*
X211460000Y-128335000D02*
X199740000Y-128335000D01*
X199740000Y-128335000D02*
X199740000Y-126915000D01*
X199740000Y-126915000D02*
X204240000Y-126915000D01*
X204240000Y-126915000D02*
X204240000Y-124525000D01*
X211460000Y-124525000D02*
X211460000Y-120715000D01*
X211460000Y-120715000D02*
X199740000Y-120715000D01*
X199740000Y-120715000D02*
X199740000Y-122135000D01*
X199740000Y-122135000D02*
X204240000Y-122135000D01*
X204240000Y-122135000D02*
X204240000Y-124525000D01*
X205350000Y-126025000D02*
X210850000Y-126025000D01*
X210850000Y-126025000D02*
X210850000Y-125525000D01*
X210850000Y-125525000D02*
X205350000Y-125525000D01*
X205350000Y-125525000D02*
X205350000Y-126025000D01*
X205350000Y-123525000D02*
X210850000Y-123525000D01*
X210850000Y-123525000D02*
X210850000Y-123025000D01*
X210850000Y-123025000D02*
X205350000Y-123025000D01*
X205350000Y-123025000D02*
X205350000Y-123525000D01*
X200650000Y-125775000D02*
X200050000Y-126075000D01*
X200050000Y-126075000D02*
X200050000Y-125475000D01*
X200050000Y-125475000D02*
X200650000Y-125775000D01*
%TO.C,J3*%
X167115000Y-131100000D02*
X167115000Y-124790000D01*
X167115000Y-124790000D02*
X178835000Y-124790000D01*
X178835000Y-124790000D02*
X178835000Y-126210000D01*
X178835000Y-126210000D02*
X174335000Y-126210000D01*
X174335000Y-126210000D02*
X174335000Y-131100000D01*
X167115000Y-131100000D02*
X167115000Y-137410000D01*
X167115000Y-137410000D02*
X178835000Y-137410000D01*
X178835000Y-137410000D02*
X178835000Y-135990000D01*
X178835000Y-135990000D02*
X174335000Y-135990000D01*
X174335000Y-135990000D02*
X174335000Y-131100000D01*
X173225000Y-127100000D02*
X167725000Y-127100000D01*
X167725000Y-127100000D02*
X167725000Y-127600000D01*
X167725000Y-127600000D02*
X173225000Y-127600000D01*
X173225000Y-127600000D02*
X173225000Y-127100000D01*
X173225000Y-129600000D02*
X167725000Y-129600000D01*
X167725000Y-129600000D02*
X167725000Y-130100000D01*
X167725000Y-130100000D02*
X173225000Y-130100000D01*
X173225000Y-130100000D02*
X173225000Y-129600000D01*
X173225000Y-132100000D02*
X167725000Y-132100000D01*
X167725000Y-132100000D02*
X167725000Y-132600000D01*
X167725000Y-132600000D02*
X173225000Y-132600000D01*
X173225000Y-132600000D02*
X173225000Y-132100000D01*
X173225000Y-134600000D02*
X167725000Y-134600000D01*
X167725000Y-134600000D02*
X167725000Y-135100000D01*
X167725000Y-135100000D02*
X173225000Y-135100000D01*
X173225000Y-135100000D02*
X173225000Y-134600000D01*
X177925000Y-127350000D02*
X178525000Y-127050000D01*
X178525000Y-127050000D02*
X178525000Y-127650000D01*
X178525000Y-127650000D02*
X177925000Y-127350000D01*
%TO.C,J2*%
X215385000Y-100175000D02*
X215385000Y-106485000D01*
X215385000Y-106485000D02*
X203665000Y-106485000D01*
X203665000Y-106485000D02*
X203665000Y-105065000D01*
X203665000Y-105065000D02*
X208165000Y-105065000D01*
X208165000Y-105065000D02*
X208165000Y-100175000D01*
X215385000Y-100175000D02*
X215385000Y-93865000D01*
X215385000Y-93865000D02*
X203665000Y-93865000D01*
X203665000Y-93865000D02*
X203665000Y-95285000D01*
X203665000Y-95285000D02*
X208165000Y-95285000D01*
X208165000Y-95285000D02*
X208165000Y-100175000D01*
X209275000Y-104175000D02*
X214775000Y-104175000D01*
X214775000Y-104175000D02*
X214775000Y-103675000D01*
X214775000Y-103675000D02*
X209275000Y-103675000D01*
X209275000Y-103675000D02*
X209275000Y-104175000D01*
X209275000Y-101675000D02*
X214775000Y-101675000D01*
X214775000Y-101675000D02*
X214775000Y-101175000D01*
X214775000Y-101175000D02*
X209275000Y-101175000D01*
X209275000Y-101175000D02*
X209275000Y-101675000D01*
X209275000Y-99175000D02*
X214775000Y-99175000D01*
X214775000Y-99175000D02*
X214775000Y-98675000D01*
X214775000Y-98675000D02*
X209275000Y-98675000D01*
X209275000Y-98675000D02*
X209275000Y-99175000D01*
X209275000Y-96675000D02*
X214775000Y-96675000D01*
X214775000Y-96675000D02*
X214775000Y-96175000D01*
X214775000Y-96175000D02*
X209275000Y-96175000D01*
X209275000Y-96175000D02*
X209275000Y-96675000D01*
X204575000Y-103925000D02*
X203975000Y-104225000D01*
X203975000Y-104225000D02*
X203975000Y-103625000D01*
X203975000Y-103625000D02*
X204575000Y-103925000D01*
%TO.C,C1*%
X202765000Y-108825000D02*
X202765000Y-113035000D01*
X202765000Y-113035000D02*
X205785000Y-113035000D01*
X205785000Y-113035000D02*
X205785000Y-108825000D01*
D11*
%TO.C,U2*%
X182040000Y-96839000D02*
G75*
G03*
X182040000Y-96839000I-254000J0D01*
G01*
D12*
X187069200Y-99930180D02*
X187069200Y-92576880D01*
X196068420Y-99930180D02*
X187069200Y-99930180D01*
X196068420Y-92576880D02*
X196068420Y-99930180D01*
X187074280Y-92576880D02*
X196068420Y-92576880D01*
X182675000Y-94672380D02*
X182675000Y-115000000D01*
X183345560Y-94001820D02*
X182675000Y-94672380D01*
X200472780Y-94001820D02*
X183345560Y-94001820D01*
X200472780Y-115000000D02*
X200472780Y-94001820D01*
X182675000Y-115000000D02*
X200472780Y-115000000D01*
D13*
X194994000Y-96585000D02*
X194994000Y-93918000D01*
X194994000Y-93918000D02*
X196772000Y-93918000D01*
X196772000Y-96585000D02*
X196772000Y-93918000D01*
X194994000Y-96585000D02*
X196772000Y-96585000D01*
X194994000Y-100651540D02*
X194994000Y-97982000D01*
X194994000Y-97982000D02*
X196772000Y-97982000D01*
X196772000Y-100651540D02*
X196772000Y-97982000D01*
X194994000Y-100651540D02*
X196772000Y-100651540D01*
X186358000Y-100651540D02*
X186358000Y-97982000D01*
X186358000Y-97982000D02*
X188136000Y-97982000D01*
X188136000Y-100651540D02*
X188136000Y-97982000D01*
X186358000Y-100651540D02*
X188136000Y-100651540D01*
X186358000Y-96585000D02*
X186358000Y-93918000D01*
X186358000Y-93918000D02*
X188136000Y-93918000D01*
X188136000Y-96585000D02*
X188136000Y-93918000D01*
X186358000Y-96585000D02*
X188136000Y-96585000D01*
X189025000Y-114365000D02*
X189025000Y-111825000D01*
X189025000Y-111825000D02*
X194740000Y-111825000D01*
X194740000Y-114365000D02*
X194740000Y-111825000D01*
X189025000Y-114365000D02*
X194740000Y-114365000D01*
X189025000Y-97220000D02*
X189025000Y-94680000D01*
X189025000Y-94680000D02*
X194105000Y-94680000D01*
X194105000Y-97220000D02*
X194105000Y-94680000D01*
X189025000Y-97220000D02*
X194105000Y-97220000D01*
D10*
%TO.C,U3*%
X194435000Y-127285000D02*
X194435000Y-126025000D01*
X194435000Y-120465000D02*
X194435000Y-121725000D01*
X190675000Y-127285000D02*
X194435000Y-127285000D01*
X188425000Y-120465000D02*
X194435000Y-120465000D01*
%TO.C,SW1*%
X184350000Y-130200000D02*
X196650000Y-130200000D01*
X196650000Y-134780000D02*
X196650000Y-137920000D01*
X196650000Y-142500000D02*
X184350000Y-142500000D01*
X184350000Y-132920000D02*
X184350000Y-130200000D01*
X195179050Y-136390000D02*
G75*
G03*
X195179050Y-136390000I-4579050J0D01*
G01*
X184350000Y-142500000D02*
X184350000Y-139780000D01*
X184350000Y-137920000D02*
X184350000Y-134780000D01*
X196650000Y-139780000D02*
X196650000Y-142500000D01*
X196650000Y-130200000D02*
X196650000Y-132920000D01*
%TO.C,RV1*%
X211710000Y-136125000D02*
X211710000Y-141185000D01*
X211710000Y-141185000D02*
X199990000Y-141185000D01*
X199990000Y-141185000D02*
X199990000Y-139765000D01*
X199990000Y-139765000D02*
X204490000Y-139765000D01*
X204490000Y-139765000D02*
X204490000Y-136125000D01*
X211710000Y-136125000D02*
X211710000Y-131065000D01*
X211710000Y-131065000D02*
X199990000Y-131065000D01*
X199990000Y-131065000D02*
X199990000Y-132485000D01*
X199990000Y-132485000D02*
X204490000Y-132485000D01*
X204490000Y-132485000D02*
X204490000Y-136125000D01*
X205600000Y-138875000D02*
X211100000Y-138875000D01*
X211100000Y-138875000D02*
X211100000Y-138375000D01*
X211100000Y-138375000D02*
X205600000Y-138375000D01*
X205600000Y-138375000D02*
X205600000Y-138875000D01*
X205600000Y-136375000D02*
X211100000Y-136375000D01*
X211100000Y-136375000D02*
X211100000Y-135875000D01*
X211100000Y-135875000D02*
X205600000Y-135875000D01*
X205600000Y-135875000D02*
X205600000Y-136375000D01*
X205600000Y-133875000D02*
X211100000Y-133875000D01*
X211100000Y-133875000D02*
X211100000Y-133375000D01*
X211100000Y-133375000D02*
X205600000Y-133375000D01*
X205600000Y-133375000D02*
X205600000Y-133875000D01*
X200900000Y-138625000D02*
X200300000Y-138925000D01*
X200300000Y-138925000D02*
X200300000Y-138325000D01*
X200300000Y-138325000D02*
X200900000Y-138625000D01*
%TO.C,R2*%
X177097936Y-104390000D02*
X177552064Y-104390000D01*
X177097936Y-105860000D02*
X177552064Y-105860000D01*
%TO.C,R1*%
X177022936Y-110465000D02*
X177477064Y-110465000D01*
X177022936Y-111935000D02*
X177477064Y-111935000D01*
%TO.C,Q1*%
X178830000Y-107465000D02*
X177900000Y-107465000D01*
X175670000Y-107465000D02*
X176600000Y-107465000D01*
X175670000Y-107465000D02*
X175670000Y-109625000D01*
X178830000Y-107465000D02*
X178830000Y-108925000D01*
%TO.C,J1*%
X162965000Y-99525000D02*
X162965000Y-94465000D01*
X162965000Y-94465000D02*
X174685000Y-94465000D01*
X174685000Y-94465000D02*
X174685000Y-95885000D01*
X174685000Y-95885000D02*
X170185000Y-95885000D01*
X170185000Y-95885000D02*
X170185000Y-99525000D01*
X162965000Y-99525000D02*
X162965000Y-104585000D01*
X162965000Y-104585000D02*
X174685000Y-104585000D01*
X174685000Y-104585000D02*
X174685000Y-103165000D01*
X174685000Y-103165000D02*
X170185000Y-103165000D01*
X170185000Y-103165000D02*
X170185000Y-99525000D01*
X169075000Y-96775000D02*
X163575000Y-96775000D01*
X163575000Y-96775000D02*
X163575000Y-97275000D01*
X163575000Y-97275000D02*
X169075000Y-97275000D01*
X169075000Y-97275000D02*
X169075000Y-96775000D01*
X169075000Y-99275000D02*
X163575000Y-99275000D01*
X163575000Y-99275000D02*
X163575000Y-99775000D01*
X163575000Y-99775000D02*
X169075000Y-99775000D01*
X169075000Y-99775000D02*
X169075000Y-99275000D01*
X169075000Y-101775000D02*
X163575000Y-101775000D01*
X163575000Y-101775000D02*
X163575000Y-102275000D01*
X163575000Y-102275000D02*
X169075000Y-102275000D01*
X169075000Y-102275000D02*
X169075000Y-101775000D01*
X173775000Y-97025000D02*
X174375000Y-96725000D01*
X174375000Y-96725000D02*
X174375000Y-97325000D01*
X174375000Y-97325000D02*
X173775000Y-97025000D01*
%TO.C,C6*%
X184563748Y-125790000D02*
X185086252Y-125790000D01*
X184563748Y-127260000D02*
X185086252Y-127260000D01*
%TO.C,C5*%
X183240000Y-120650000D02*
X183240000Y-124860000D01*
X183240000Y-124860000D02*
X186260000Y-124860000D01*
X186260000Y-124860000D02*
X186260000Y-120650000D01*
%TO.C,C4*%
X172285000Y-109975000D02*
X172285000Y-105765000D01*
X172285000Y-105765000D02*
X169265000Y-105765000D01*
X169265000Y-105765000D02*
X169265000Y-109975000D01*
%TO.C,C3*%
X167785000Y-109975000D02*
X167785000Y-105765000D01*
X167785000Y-105765000D02*
X164765000Y-105765000D01*
X164765000Y-105765000D02*
X164765000Y-109975000D01*
%TO.C,C2*%
X204013748Y-113690000D02*
X204536252Y-113690000D01*
X204013748Y-115160000D02*
X204536252Y-115160000D01*
%TO.C,U1*%
D14*
X210788095Y-115477380D02*
X210788095Y-116286904D01*
X210835714Y-116382142D01*
X210883333Y-116429761D01*
X210978571Y-116477380D01*
X211169047Y-116477380D01*
X211264285Y-116429761D01*
X211311904Y-116382142D01*
X211359523Y-116286904D01*
X211359523Y-115477380D01*
X212359523Y-116477380D02*
X211788095Y-116477380D01*
X212073809Y-116477380D02*
X212073809Y-115477380D01*
X211978571Y-115620238D01*
X211883333Y-115715476D01*
X211788095Y-115763095D01*
%TO.C,J4*%
X198102380Y-124858333D02*
X198816666Y-124858333D01*
X198959523Y-124905952D01*
X199054761Y-125001190D01*
X199102380Y-125144047D01*
X199102380Y-125239285D01*
X198435714Y-123953571D02*
X199102380Y-123953571D01*
X198054761Y-124191666D02*
X198769047Y-124429761D01*
X198769047Y-123810714D01*
%TO.C,J3*%
X179377380Y-131433333D02*
X180091666Y-131433333D01*
X180234523Y-131480952D01*
X180329761Y-131576190D01*
X180377380Y-131719047D01*
X180377380Y-131814285D01*
X179377380Y-131052380D02*
X179377380Y-130433333D01*
X179758333Y-130766666D01*
X179758333Y-130623809D01*
X179805952Y-130528571D01*
X179853571Y-130480952D01*
X179948809Y-130433333D01*
X180186904Y-130433333D01*
X180282142Y-130480952D01*
X180329761Y-130528571D01*
X180377380Y-130623809D01*
X180377380Y-130909523D01*
X180329761Y-131004761D01*
X180282142Y-131052380D01*
%TO.C,J2*%
X202027380Y-100508333D02*
X202741666Y-100508333D01*
X202884523Y-100555952D01*
X202979761Y-100651190D01*
X203027380Y-100794047D01*
X203027380Y-100889285D01*
X202122619Y-100079761D02*
X202075000Y-100032142D01*
X202027380Y-99936904D01*
X202027380Y-99698809D01*
X202075000Y-99603571D01*
X202122619Y-99555952D01*
X202217857Y-99508333D01*
X202313095Y-99508333D01*
X202455952Y-99555952D01*
X203027380Y-100127380D01*
X203027380Y-99508333D01*
%TO.C,C1*%
X202207142Y-111016666D02*
X202254761Y-111064285D01*
X202302380Y-111207142D01*
X202302380Y-111302380D01*
X202254761Y-111445238D01*
X202159523Y-111540476D01*
X202064285Y-111588095D01*
X201873809Y-111635714D01*
X201730952Y-111635714D01*
X201540476Y-111588095D01*
X201445238Y-111540476D01*
X201350000Y-111445238D01*
X201302380Y-111302380D01*
X201302380Y-111207142D01*
X201350000Y-111064285D01*
X201397619Y-111016666D01*
X202302380Y-110064285D02*
X202302380Y-110635714D01*
X202302380Y-110350000D02*
X201302380Y-110350000D01*
X201445238Y-110445238D01*
X201540476Y-110540476D01*
X201588095Y-110635714D01*
%TO.C,U2*%
D15*
X191332166Y-92732666D02*
X191332166Y-93452333D01*
X191374500Y-93537000D01*
X191416833Y-93579333D01*
X191501500Y-93621666D01*
X191670833Y-93621666D01*
X191755500Y-93579333D01*
X191797833Y-93537000D01*
X191840166Y-93452333D01*
X191840166Y-92732666D01*
X192221166Y-92817333D02*
X192263500Y-92775000D01*
X192348166Y-92732666D01*
X192559833Y-92732666D01*
X192644500Y-92775000D01*
X192686833Y-92817333D01*
X192729166Y-92902000D01*
X192729166Y-92986666D01*
X192686833Y-93113666D01*
X192178833Y-93621666D01*
X192729166Y-93621666D01*
%TO.C,U3*%
D14*
X191538095Y-127777380D02*
X191538095Y-128586904D01*
X191585714Y-128682142D01*
X191633333Y-128729761D01*
X191728571Y-128777380D01*
X191919047Y-128777380D01*
X192014285Y-128729761D01*
X192061904Y-128682142D01*
X192109523Y-128586904D01*
X192109523Y-127777380D01*
X192490476Y-127777380D02*
X193109523Y-127777380D01*
X192776190Y-128158333D01*
X192919047Y-128158333D01*
X193014285Y-128205952D01*
X193061904Y-128253571D01*
X193109523Y-128348809D01*
X193109523Y-128586904D01*
X193061904Y-128682142D01*
X193014285Y-128729761D01*
X192919047Y-128777380D01*
X192633333Y-128777380D01*
X192538095Y-128729761D01*
X192490476Y-128682142D01*
%TO.C,SW1*%
X181341666Y-141929761D02*
X181484523Y-141977380D01*
X181722619Y-141977380D01*
X181817857Y-141929761D01*
X181865476Y-141882142D01*
X181913095Y-141786904D01*
X181913095Y-141691666D01*
X181865476Y-141596428D01*
X181817857Y-141548809D01*
X181722619Y-141501190D01*
X181532142Y-141453571D01*
X181436904Y-141405952D01*
X181389285Y-141358333D01*
X181341666Y-141263095D01*
X181341666Y-141167857D01*
X181389285Y-141072619D01*
X181436904Y-141025000D01*
X181532142Y-140977380D01*
X181770238Y-140977380D01*
X181913095Y-141025000D01*
X182246428Y-140977380D02*
X182484523Y-141977380D01*
X182675000Y-141263095D01*
X182865476Y-141977380D01*
X183103571Y-140977380D01*
X184008333Y-141977380D02*
X183436904Y-141977380D01*
X183722619Y-141977380D02*
X183722619Y-140977380D01*
X183627380Y-141120238D01*
X183532142Y-141215476D01*
X183436904Y-141263095D01*
%TO.C,RV1*%
X201879761Y-142852380D02*
X201546428Y-142376190D01*
X201308333Y-142852380D02*
X201308333Y-141852380D01*
X201689285Y-141852380D01*
X201784523Y-141900000D01*
X201832142Y-141947619D01*
X201879761Y-142042857D01*
X201879761Y-142185714D01*
X201832142Y-142280952D01*
X201784523Y-142328571D01*
X201689285Y-142376190D01*
X201308333Y-142376190D01*
X202165476Y-141852380D02*
X202498809Y-142852380D01*
X202832142Y-141852380D01*
X203689285Y-142852380D02*
X203117857Y-142852380D01*
X203403571Y-142852380D02*
X203403571Y-141852380D01*
X203308333Y-141995238D01*
X203213095Y-142090476D01*
X203117857Y-142138095D01*
%TO.C,R2*%
X179808333Y-105577380D02*
X179475000Y-105101190D01*
X179236904Y-105577380D02*
X179236904Y-104577380D01*
X179617857Y-104577380D01*
X179713095Y-104625000D01*
X179760714Y-104672619D01*
X179808333Y-104767857D01*
X179808333Y-104910714D01*
X179760714Y-105005952D01*
X179713095Y-105053571D01*
X179617857Y-105101190D01*
X179236904Y-105101190D01*
X180189285Y-104672619D02*
X180236904Y-104625000D01*
X180332142Y-104577380D01*
X180570238Y-104577380D01*
X180665476Y-104625000D01*
X180713095Y-104672619D01*
X180760714Y-104767857D01*
X180760714Y-104863095D01*
X180713095Y-105005952D01*
X180141666Y-105577380D01*
X180760714Y-105577380D01*
%TO.C,R1*%
X174383333Y-111552380D02*
X174050000Y-111076190D01*
X173811904Y-111552380D02*
X173811904Y-110552380D01*
X174192857Y-110552380D01*
X174288095Y-110600000D01*
X174335714Y-110647619D01*
X174383333Y-110742857D01*
X174383333Y-110885714D01*
X174335714Y-110980952D01*
X174288095Y-111028571D01*
X174192857Y-111076190D01*
X173811904Y-111076190D01*
X175335714Y-111552380D02*
X174764285Y-111552380D01*
X175050000Y-111552380D02*
X175050000Y-110552380D01*
X174954761Y-110695238D01*
X174859523Y-110790476D01*
X174764285Y-110838095D01*
%TO.C,Q1*%
X180222619Y-107620238D02*
X180175000Y-107715476D01*
X180079761Y-107810714D01*
X179936904Y-107953571D01*
X179889285Y-108048809D01*
X179889285Y-108144047D01*
X180127380Y-108096428D02*
X180079761Y-108191666D01*
X179984523Y-108286904D01*
X179794047Y-108334523D01*
X179460714Y-108334523D01*
X179270238Y-108286904D01*
X179175000Y-108191666D01*
X179127380Y-108096428D01*
X179127380Y-107905952D01*
X179175000Y-107810714D01*
X179270238Y-107715476D01*
X179460714Y-107667857D01*
X179794047Y-107667857D01*
X179984523Y-107715476D01*
X180079761Y-107810714D01*
X180127380Y-107905952D01*
X180127380Y-108096428D01*
X180127380Y-106715476D02*
X180127380Y-107286904D01*
X180127380Y-107001190D02*
X179127380Y-107001190D01*
X179270238Y-107096428D01*
X179365476Y-107191666D01*
X179413095Y-107286904D01*
%TO.C,J1*%
X175227380Y-99858333D02*
X175941666Y-99858333D01*
X176084523Y-99905952D01*
X176179761Y-100001190D01*
X176227380Y-100144047D01*
X176227380Y-100239285D01*
X176227380Y-98858333D02*
X176227380Y-99429761D01*
X176227380Y-99144047D02*
X175227380Y-99144047D01*
X175370238Y-99239285D01*
X175465476Y-99334523D01*
X175513095Y-99429761D01*
%TO.C,C6*%
X182782142Y-126716666D02*
X182829761Y-126764285D01*
X182877380Y-126907142D01*
X182877380Y-127002380D01*
X182829761Y-127145238D01*
X182734523Y-127240476D01*
X182639285Y-127288095D01*
X182448809Y-127335714D01*
X182305952Y-127335714D01*
X182115476Y-127288095D01*
X182020238Y-127240476D01*
X181925000Y-127145238D01*
X181877380Y-127002380D01*
X181877380Y-126907142D01*
X181925000Y-126764285D01*
X181972619Y-126716666D01*
X181877380Y-125859523D02*
X181877380Y-126050000D01*
X181925000Y-126145238D01*
X181972619Y-126192857D01*
X182115476Y-126288095D01*
X182305952Y-126335714D01*
X182686904Y-126335714D01*
X182782142Y-126288095D01*
X182829761Y-126240476D01*
X182877380Y-126145238D01*
X182877380Y-125954761D01*
X182829761Y-125859523D01*
X182782142Y-125811904D01*
X182686904Y-125764285D01*
X182448809Y-125764285D01*
X182353571Y-125811904D01*
X182305952Y-125859523D01*
X182258333Y-125954761D01*
X182258333Y-126145238D01*
X182305952Y-126240476D01*
X182353571Y-126288095D01*
X182448809Y-126335714D01*
%TO.C,C5*%
X182757142Y-122566666D02*
X182804761Y-122614285D01*
X182852380Y-122757142D01*
X182852380Y-122852380D01*
X182804761Y-122995238D01*
X182709523Y-123090476D01*
X182614285Y-123138095D01*
X182423809Y-123185714D01*
X182280952Y-123185714D01*
X182090476Y-123138095D01*
X181995238Y-123090476D01*
X181900000Y-122995238D01*
X181852380Y-122852380D01*
X181852380Y-122757142D01*
X181900000Y-122614285D01*
X181947619Y-122566666D01*
X181852380Y-121661904D02*
X181852380Y-122138095D01*
X182328571Y-122185714D01*
X182280952Y-122138095D01*
X182233333Y-122042857D01*
X182233333Y-121804761D01*
X182280952Y-121709523D01*
X182328571Y-121661904D01*
X182423809Y-121614285D01*
X182661904Y-121614285D01*
X182757142Y-121661904D01*
X182804761Y-121709523D01*
X182852380Y-121804761D01*
X182852380Y-122042857D01*
X182804761Y-122138095D01*
X182757142Y-122185714D01*
%TO.C,C4*%
X173482142Y-108391666D02*
X173529761Y-108439285D01*
X173577380Y-108582142D01*
X173577380Y-108677380D01*
X173529761Y-108820238D01*
X173434523Y-108915476D01*
X173339285Y-108963095D01*
X173148809Y-109010714D01*
X173005952Y-109010714D01*
X172815476Y-108963095D01*
X172720238Y-108915476D01*
X172625000Y-108820238D01*
X172577380Y-108677380D01*
X172577380Y-108582142D01*
X172625000Y-108439285D01*
X172672619Y-108391666D01*
X172910714Y-107534523D02*
X173577380Y-107534523D01*
X172529761Y-107772619D02*
X173244047Y-108010714D01*
X173244047Y-107391666D01*
%TO.C,C3*%
X164032142Y-108066666D02*
X164079761Y-108114285D01*
X164127380Y-108257142D01*
X164127380Y-108352380D01*
X164079761Y-108495238D01*
X163984523Y-108590476D01*
X163889285Y-108638095D01*
X163698809Y-108685714D01*
X163555952Y-108685714D01*
X163365476Y-108638095D01*
X163270238Y-108590476D01*
X163175000Y-108495238D01*
X163127380Y-108352380D01*
X163127380Y-108257142D01*
X163175000Y-108114285D01*
X163222619Y-108066666D01*
X163127380Y-107733333D02*
X163127380Y-107114285D01*
X163508333Y-107447619D01*
X163508333Y-107304761D01*
X163555952Y-107209523D01*
X163603571Y-107161904D01*
X163698809Y-107114285D01*
X163936904Y-107114285D01*
X164032142Y-107161904D01*
X164079761Y-107209523D01*
X164127380Y-107304761D01*
X164127380Y-107590476D01*
X164079761Y-107685714D01*
X164032142Y-107733333D01*
%TO.C,C2*%
X204008333Y-116532142D02*
X203960714Y-116579761D01*
X203817857Y-116627380D01*
X203722619Y-116627380D01*
X203579761Y-116579761D01*
X203484523Y-116484523D01*
X203436904Y-116389285D01*
X203389285Y-116198809D01*
X203389285Y-116055952D01*
X203436904Y-115865476D01*
X203484523Y-115770238D01*
X203579761Y-115675000D01*
X203722619Y-115627380D01*
X203817857Y-115627380D01*
X203960714Y-115675000D01*
X204008333Y-115722619D01*
X204389285Y-115722619D02*
X204436904Y-115675000D01*
X204532142Y-115627380D01*
X204770238Y-115627380D01*
X204865476Y-115675000D01*
X204913095Y-115722619D01*
X204960714Y-115817857D01*
X204960714Y-115913095D01*
X204913095Y-116055952D01*
X204341666Y-116627380D01*
X204960714Y-116627380D01*
%TD*%
%LPC*%
%TO.C,U1*%
G36*
G01*
X207475000Y-110050000D02*
X207475000Y-108550000D01*
G75*
G02*
X207525000Y-108500000I50000J0D01*
G01*
X209525000Y-108500000D01*
G75*
G02*
X209575000Y-108550000I0J-50000D01*
G01*
X209575000Y-110050000D01*
G75*
G02*
X209525000Y-110100000I-50000J0D01*
G01*
X207525000Y-110100000D01*
G75*
G02*
X207475000Y-110050000I0J50000D01*
G01*
G37*
G36*
G01*
X207475000Y-114650000D02*
X207475000Y-113150000D01*
G75*
G02*
X207525000Y-113100000I50000J0D01*
G01*
X209525000Y-113100000D01*
G75*
G02*
X209575000Y-113150000I0J-50000D01*
G01*
X209575000Y-114650000D01*
G75*
G02*
X209525000Y-114700000I-50000J0D01*
G01*
X207525000Y-114700000D01*
G75*
G02*
X207475000Y-114650000I0J50000D01*
G01*
G37*
G36*
G01*
X207475000Y-112350000D02*
X207475000Y-110850000D01*
G75*
G02*
X207525000Y-110800000I50000J0D01*
G01*
X209525000Y-110800000D01*
G75*
G02*
X209575000Y-110850000I0J-50000D01*
G01*
X209575000Y-112350000D01*
G75*
G02*
X209525000Y-112400000I-50000J0D01*
G01*
X207525000Y-112400000D01*
G75*
G02*
X207475000Y-112350000I0J50000D01*
G01*
G37*
G36*
G01*
X213775000Y-113500000D02*
X213775000Y-109700000D01*
G75*
G02*
X213825000Y-109650000I50000J0D01*
G01*
X215825000Y-109650000D01*
G75*
G02*
X215875000Y-109700000I0J-50000D01*
G01*
X215875000Y-113500000D01*
G75*
G02*
X215825000Y-113550000I-50000J0D01*
G01*
X213825000Y-113550000D01*
G75*
G02*
X213775000Y-113500000I0J50000D01*
G01*
G37*
%TD*%
D16*
%TO.C,J4*%
X202150000Y-123275000D03*
G36*
G01*
X202935400Y-126675000D02*
X201364600Y-126675000D01*
G75*
G02*
X201100000Y-126410400I0J264600D01*
G01*
X201100000Y-125139600D01*
G75*
G02*
X201364600Y-124875000I264600J0D01*
G01*
X202935400Y-124875000D01*
G75*
G02*
X203200000Y-125139600I0J-264600D01*
G01*
X203200000Y-126410400D01*
G75*
G02*
X202935400Y-126675000I-264600J0D01*
G01*
G37*
%TD*%
%TO.C,J3*%
G36*
G01*
X175850000Y-126450000D02*
X177000000Y-126450000D01*
G75*
G02*
X177450000Y-126900000I0J-450000D01*
G01*
X177450000Y-127800000D01*
G75*
G02*
X177000000Y-128250000I-450000J0D01*
G01*
X175850000Y-128250000D01*
G75*
G02*
X175400000Y-127800000I0J450000D01*
G01*
X175400000Y-126900000D01*
G75*
G02*
X175850000Y-126450000I450000J0D01*
G01*
G37*
D17*
X176425000Y-129850000D03*
X176425000Y-132350000D03*
X176425000Y-134850000D03*
%TD*%
%TO.C,J2*%
G36*
G01*
X206650000Y-97325000D02*
X205500000Y-97325000D01*
G75*
G02*
X205050000Y-96875000I0J450000D01*
G01*
X205050000Y-95975000D01*
G75*
G02*
X205500000Y-95525000I450000J0D01*
G01*
X206650000Y-95525000D01*
G75*
G02*
X207100000Y-95975000I0J-450000D01*
G01*
X207100000Y-96875000D01*
G75*
G02*
X206650000Y-97325000I-450000J0D01*
G01*
G37*
X206075000Y-98925000D03*
X206075000Y-101425000D03*
X206075000Y-103925000D03*
%TD*%
%TO.C,C1*%
G36*
G01*
X205230677Y-109750000D02*
X203319323Y-109750000D01*
G75*
G02*
X203050000Y-109480677I0J269323D01*
G01*
X203050000Y-108594323D01*
G75*
G02*
X203319323Y-108325000I269323J0D01*
G01*
X205230677Y-108325000D01*
G75*
G02*
X205500000Y-108594323I0J-269323D01*
G01*
X205500000Y-109480677D01*
G75*
G02*
X205230677Y-109750000I-269323J0D01*
G01*
G37*
G36*
G01*
X205231134Y-112825000D02*
X203318866Y-112825000D01*
G75*
G02*
X203050000Y-112556134I0J268866D01*
G01*
X203050000Y-111668866D01*
G75*
G02*
X203318866Y-111400000I268866J0D01*
G01*
X205231134Y-111400000D01*
G75*
G02*
X205500000Y-111668866I0J-268866D01*
G01*
X205500000Y-112556134D01*
G75*
G02*
X205231134Y-112825000I-268866J0D01*
G01*
G37*
%TD*%
D18*
%TO.C,U2*%
X192913803Y-98735813D03*
X190373803Y-98735813D03*
X192913803Y-96195813D03*
X190373803Y-96195813D03*
D19*
X192925000Y-113200000D03*
X190375000Y-113200000D03*
D20*
X183508120Y-96882180D03*
X183508120Y-99422180D03*
X183508120Y-101962180D03*
X183508120Y-104502180D03*
X183508120Y-107042180D03*
X183508120Y-109582180D03*
X183508120Y-112122180D03*
X199672680Y-112122180D03*
X199672680Y-109582180D03*
X199672680Y-107042180D03*
X199672680Y-104502180D03*
X199672680Y-101962180D03*
X199672680Y-99422180D03*
X199672680Y-96882180D03*
%TD*%
%TO.C,U3*%
G36*
G01*
X188325000Y-122325000D02*
X188325000Y-120825000D01*
G75*
G02*
X188375000Y-120775000I50000J0D01*
G01*
X190375000Y-120775000D01*
G75*
G02*
X190425000Y-120825000I0J-50000D01*
G01*
X190425000Y-122325000D01*
G75*
G02*
X190375000Y-122375000I-50000J0D01*
G01*
X188375000Y-122375000D01*
G75*
G02*
X188325000Y-122325000I0J50000D01*
G01*
G37*
G36*
G01*
X188325000Y-126925000D02*
X188325000Y-125425000D01*
G75*
G02*
X188375000Y-125375000I50000J0D01*
G01*
X190375000Y-125375000D01*
G75*
G02*
X190425000Y-125425000I0J-50000D01*
G01*
X190425000Y-126925000D01*
G75*
G02*
X190375000Y-126975000I-50000J0D01*
G01*
X188375000Y-126975000D01*
G75*
G02*
X188325000Y-126925000I0J50000D01*
G01*
G37*
G36*
G01*
X188325000Y-124625000D02*
X188325000Y-123125000D01*
G75*
G02*
X188375000Y-123075000I50000J0D01*
G01*
X190375000Y-123075000D01*
G75*
G02*
X190425000Y-123125000I0J-50000D01*
G01*
X190425000Y-124625000D01*
G75*
G02*
X190375000Y-124675000I-50000J0D01*
G01*
X188375000Y-124675000D01*
G75*
G02*
X188325000Y-124625000I0J50000D01*
G01*
G37*
G36*
G01*
X194625000Y-125775000D02*
X194625000Y-121975000D01*
G75*
G02*
X194675000Y-121925000I50000J0D01*
G01*
X196675000Y-121925000D01*
G75*
G02*
X196725000Y-121975000I0J-50000D01*
G01*
X196725000Y-125775000D01*
G75*
G02*
X196675000Y-125825000I-50000J0D01*
G01*
X194675000Y-125825000D01*
G75*
G02*
X194625000Y-125775000I0J50000D01*
G01*
G37*
%TD*%
D21*
%TO.C,SW1*%
X184250000Y-138850000D03*
X184250000Y-133850000D03*
X196750000Y-138850000D03*
X196750000Y-133850000D03*
%TD*%
D17*
%TO.C,RV1*%
X202400000Y-133625000D03*
X202400000Y-136125000D03*
G36*
G01*
X203160295Y-139525000D02*
X201639705Y-139525000D01*
G75*
G02*
X201375000Y-139260295I0J264705D01*
G01*
X201375000Y-137989705D01*
G75*
G02*
X201639705Y-137725000I264705J0D01*
G01*
X203160295Y-137725000D01*
G75*
G02*
X203425000Y-137989705I0J-264705D01*
G01*
X203425000Y-139260295D01*
G75*
G02*
X203160295Y-139525000I-264705J0D01*
G01*
G37*
%TD*%
%TO.C,R2*%
G36*
G01*
X177675000Y-105600611D02*
X177675000Y-104649389D01*
G75*
G02*
X177949389Y-104375000I274389J0D01*
G01*
X178525611Y-104375000D01*
G75*
G02*
X178800000Y-104649389I0J-274389D01*
G01*
X178800000Y-105600611D01*
G75*
G02*
X178525611Y-105875000I-274389J0D01*
G01*
X177949389Y-105875000D01*
G75*
G02*
X177675000Y-105600611I0J274389D01*
G01*
G37*
G36*
G01*
X175850000Y-105600611D02*
X175850000Y-104649389D01*
G75*
G02*
X176124389Y-104375000I274389J0D01*
G01*
X176700611Y-104375000D01*
G75*
G02*
X176975000Y-104649389I0J-274389D01*
G01*
X176975000Y-105600611D01*
G75*
G02*
X176700611Y-105875000I-274389J0D01*
G01*
X176124389Y-105875000D01*
G75*
G02*
X175850000Y-105600611I0J274389D01*
G01*
G37*
%TD*%
%TO.C,R1*%
G36*
G01*
X177600000Y-111675611D02*
X177600000Y-110724389D01*
G75*
G02*
X177874389Y-110450000I274389J0D01*
G01*
X178450611Y-110450000D01*
G75*
G02*
X178725000Y-110724389I0J-274389D01*
G01*
X178725000Y-111675611D01*
G75*
G02*
X178450611Y-111950000I-274389J0D01*
G01*
X177874389Y-111950000D01*
G75*
G02*
X177600000Y-111675611I0J274389D01*
G01*
G37*
G36*
G01*
X175775000Y-111675611D02*
X175775000Y-110724389D01*
G75*
G02*
X176049389Y-110450000I274389J0D01*
G01*
X176625611Y-110450000D01*
G75*
G02*
X176900000Y-110724389I0J-274389D01*
G01*
X176900000Y-111675611D01*
G75*
G02*
X176625611Y-111950000I-274389J0D01*
G01*
X176049389Y-111950000D01*
G75*
G02*
X175775000Y-111675611I0J274389D01*
G01*
G37*
%TD*%
%TO.C,Q1*%
G36*
G01*
X177650000Y-107725000D02*
X176850000Y-107725000D01*
G75*
G02*
X176800000Y-107675000I0J50000D01*
G01*
X176800000Y-106775000D01*
G75*
G02*
X176850000Y-106725000I50000J0D01*
G01*
X177650000Y-106725000D01*
G75*
G02*
X177700000Y-106775000I0J-50000D01*
G01*
X177700000Y-107675000D01*
G75*
G02*
X177650000Y-107725000I-50000J0D01*
G01*
G37*
G36*
G01*
X178600000Y-109725000D02*
X177800000Y-109725000D01*
G75*
G02*
X177750000Y-109675000I0J50000D01*
G01*
X177750000Y-108775000D01*
G75*
G02*
X177800000Y-108725000I50000J0D01*
G01*
X178600000Y-108725000D01*
G75*
G02*
X178650000Y-108775000I0J-50000D01*
G01*
X178650000Y-109675000D01*
G75*
G02*
X178600000Y-109725000I-50000J0D01*
G01*
G37*
G36*
G01*
X176700000Y-109725000D02*
X175900000Y-109725000D01*
G75*
G02*
X175850000Y-109675000I0J50000D01*
G01*
X175850000Y-108775000D01*
G75*
G02*
X175900000Y-108725000I50000J0D01*
G01*
X176700000Y-108725000D01*
G75*
G02*
X176750000Y-108775000I0J-50000D01*
G01*
X176750000Y-109675000D01*
G75*
G02*
X176700000Y-109725000I-50000J0D01*
G01*
G37*
%TD*%
%TO.C,J1*%
X172275000Y-102025000D03*
X172275000Y-99525000D03*
G36*
G01*
X171514705Y-96125000D02*
X173035295Y-96125000D01*
G75*
G02*
X173300000Y-96389705I0J-264705D01*
G01*
X173300000Y-97660295D01*
G75*
G02*
X173035295Y-97925000I-264705J0D01*
G01*
X171514705Y-97925000D01*
G75*
G02*
X171250000Y-97660295I0J264705D01*
G01*
X171250000Y-96389705D01*
G75*
G02*
X171514705Y-96125000I264705J0D01*
G01*
G37*
%TD*%
%TO.C,C6*%
G36*
G01*
X185225000Y-127025000D02*
X185225000Y-126025000D01*
G75*
G02*
X185500000Y-125750000I275000J0D01*
G01*
X186050000Y-125750000D01*
G75*
G02*
X186325000Y-126025000I0J-275000D01*
G01*
X186325000Y-127025000D01*
G75*
G02*
X186050000Y-127300000I-275000J0D01*
G01*
X185500000Y-127300000D01*
G75*
G02*
X185225000Y-127025000I0J275000D01*
G01*
G37*
G36*
G01*
X183325000Y-127025000D02*
X183325000Y-126025000D01*
G75*
G02*
X183600000Y-125750000I275000J0D01*
G01*
X184150000Y-125750000D01*
G75*
G02*
X184425000Y-126025000I0J-275000D01*
G01*
X184425000Y-127025000D01*
G75*
G02*
X184150000Y-127300000I-275000J0D01*
G01*
X183600000Y-127300000D01*
G75*
G02*
X183325000Y-127025000I0J275000D01*
G01*
G37*
%TD*%
%TO.C,C5*%
G36*
G01*
X185706134Y-121575000D02*
X183793866Y-121575000D01*
G75*
G02*
X183525000Y-121306134I0J268866D01*
G01*
X183525000Y-120418866D01*
G75*
G02*
X183793866Y-120150000I268866J0D01*
G01*
X185706134Y-120150000D01*
G75*
G02*
X185975000Y-120418866I0J-268866D01*
G01*
X185975000Y-121306134D01*
G75*
G02*
X185706134Y-121575000I-268866J0D01*
G01*
G37*
G36*
G01*
X185706134Y-124650000D02*
X183793866Y-124650000D01*
G75*
G02*
X183525000Y-124381134I0J268866D01*
G01*
X183525000Y-123493866D01*
G75*
G02*
X183793866Y-123225000I268866J0D01*
G01*
X185706134Y-123225000D01*
G75*
G02*
X185975000Y-123493866I0J-268866D01*
G01*
X185975000Y-124381134D01*
G75*
G02*
X185706134Y-124650000I-268866J0D01*
G01*
G37*
%TD*%
%TO.C,C4*%
G36*
G01*
X169818866Y-109050000D02*
X171731134Y-109050000D01*
G75*
G02*
X172000000Y-109318866I0J-268866D01*
G01*
X172000000Y-110206134D01*
G75*
G02*
X171731134Y-110475000I-268866J0D01*
G01*
X169818866Y-110475000D01*
G75*
G02*
X169550000Y-110206134I0J268866D01*
G01*
X169550000Y-109318866D01*
G75*
G02*
X169818866Y-109050000I268866J0D01*
G01*
G37*
G36*
G01*
X169818866Y-105975000D02*
X171731134Y-105975000D01*
G75*
G02*
X172000000Y-106243866I0J-268866D01*
G01*
X172000000Y-107131134D01*
G75*
G02*
X171731134Y-107400000I-268866J0D01*
G01*
X169818866Y-107400000D01*
G75*
G02*
X169550000Y-107131134I0J268866D01*
G01*
X169550000Y-106243866D01*
G75*
G02*
X169818866Y-105975000I268866J0D01*
G01*
G37*
%TD*%
%TO.C,C3*%
G36*
G01*
X165318866Y-109050000D02*
X167231134Y-109050000D01*
G75*
G02*
X167500000Y-109318866I0J-268866D01*
G01*
X167500000Y-110206134D01*
G75*
G02*
X167231134Y-110475000I-268866J0D01*
G01*
X165318866Y-110475000D01*
G75*
G02*
X165050000Y-110206134I0J268866D01*
G01*
X165050000Y-109318866D01*
G75*
G02*
X165318866Y-109050000I268866J0D01*
G01*
G37*
G36*
G01*
X165318866Y-105975000D02*
X167231134Y-105975000D01*
G75*
G02*
X167500000Y-106243866I0J-268866D01*
G01*
X167500000Y-107131134D01*
G75*
G02*
X167231134Y-107400000I-268866J0D01*
G01*
X165318866Y-107400000D01*
G75*
G02*
X165050000Y-107131134I0J268866D01*
G01*
X165050000Y-106243866D01*
G75*
G02*
X165318866Y-105975000I268866J0D01*
G01*
G37*
%TD*%
%TO.C,C2*%
G36*
G01*
X204675000Y-114925000D02*
X204675000Y-113925000D01*
G75*
G02*
X204950000Y-113650000I275000J0D01*
G01*
X205500000Y-113650000D01*
G75*
G02*
X205775000Y-113925000I0J-275000D01*
G01*
X205775000Y-114925000D01*
G75*
G02*
X205500000Y-115200000I-275000J0D01*
G01*
X204950000Y-115200000D01*
G75*
G02*
X204675000Y-114925000I0J275000D01*
G01*
G37*
G36*
G01*
X202775000Y-114925000D02*
X202775000Y-113925000D01*
G75*
G02*
X203050000Y-113650000I275000J0D01*
G01*
X203600000Y-113650000D01*
G75*
G02*
X203875000Y-113925000I0J-275000D01*
G01*
X203875000Y-114925000D01*
G75*
G02*
X203600000Y-115200000I-275000J0D01*
G01*
X203050000Y-115200000D01*
G75*
G02*
X202775000Y-114925000I0J275000D01*
G01*
G37*
%TD*%
M02*
