%TF.GenerationSoftware,KiCad,Pcbnew,5.1.7-a382d34a8~88~ubuntu20.04.1*%
%TF.CreationDate,2021-07-04T15:14:18-05:00*%
%TF.ProjectId,led-backlight,6c65642d-6261-4636-9b6c-696768742e6b,rev?*%
%TF.SameCoordinates,Original*%
%TF.FileFunction,Soldermask,Top*%
%TF.FilePolarity,Negative*%
%FSLAX46Y46*%
G04 Gerber Fmt 4.6, Leading zero omitted, Abs format (unit mm)*
G04 Created by KiCad (PCBNEW 5.1.7-a382d34a8~88~ubuntu20.04.1) date 2021-07-04 15:14:18*
%MOMM*%
%LPD*%
G01*
G04 APERTURE LIST*
%ADD10O,2.100000X1.800000*%
%ADD11O,2.050000X1.800000*%
%ADD12C,1.243000*%
%ADD13O,1.116000X2.132000*%
%ADD14O,2.848280X2.098980*%
%ADD15O,3.148000X1.950000*%
G04 APERTURE END LIST*
%TO.C,U1*%
G36*
G01*
X207475000Y-110050000D02*
X207475000Y-108550000D01*
G75*
G02*
X207525000Y-108500000I50000J0D01*
G01*
X209525000Y-108500000D01*
G75*
G02*
X209575000Y-108550000I0J-50000D01*
G01*
X209575000Y-110050000D01*
G75*
G02*
X209525000Y-110100000I-50000J0D01*
G01*
X207525000Y-110100000D01*
G75*
G02*
X207475000Y-110050000I0J50000D01*
G01*
G37*
G36*
G01*
X207475000Y-114650000D02*
X207475000Y-113150000D01*
G75*
G02*
X207525000Y-113100000I50000J0D01*
G01*
X209525000Y-113100000D01*
G75*
G02*
X209575000Y-113150000I0J-50000D01*
G01*
X209575000Y-114650000D01*
G75*
G02*
X209525000Y-114700000I-50000J0D01*
G01*
X207525000Y-114700000D01*
G75*
G02*
X207475000Y-114650000I0J50000D01*
G01*
G37*
G36*
G01*
X207475000Y-112350000D02*
X207475000Y-110850000D01*
G75*
G02*
X207525000Y-110800000I50000J0D01*
G01*
X209525000Y-110800000D01*
G75*
G02*
X209575000Y-110850000I0J-50000D01*
G01*
X209575000Y-112350000D01*
G75*
G02*
X209525000Y-112400000I-50000J0D01*
G01*
X207525000Y-112400000D01*
G75*
G02*
X207475000Y-112350000I0J50000D01*
G01*
G37*
G36*
G01*
X213775000Y-113500000D02*
X213775000Y-109700000D01*
G75*
G02*
X213825000Y-109650000I50000J0D01*
G01*
X215825000Y-109650000D01*
G75*
G02*
X215875000Y-109700000I0J-50000D01*
G01*
X215875000Y-113500000D01*
G75*
G02*
X215825000Y-113550000I-50000J0D01*
G01*
X213825000Y-113550000D01*
G75*
G02*
X213775000Y-113500000I0J50000D01*
G01*
G37*
%TD*%
D10*
%TO.C,J4*%
X202150000Y-123275000D03*
G36*
G01*
X202935400Y-126675000D02*
X201364600Y-126675000D01*
G75*
G02*
X201100000Y-126410400I0J264600D01*
G01*
X201100000Y-125139600D01*
G75*
G02*
X201364600Y-124875000I264600J0D01*
G01*
X202935400Y-124875000D01*
G75*
G02*
X203200000Y-125139600I0J-264600D01*
G01*
X203200000Y-126410400D01*
G75*
G02*
X202935400Y-126675000I-264600J0D01*
G01*
G37*
%TD*%
%TO.C,J3*%
G36*
G01*
X175850000Y-126450000D02*
X177000000Y-126450000D01*
G75*
G02*
X177450000Y-126900000I0J-450000D01*
G01*
X177450000Y-127800000D01*
G75*
G02*
X177000000Y-128250000I-450000J0D01*
G01*
X175850000Y-128250000D01*
G75*
G02*
X175400000Y-127800000I0J450000D01*
G01*
X175400000Y-126900000D01*
G75*
G02*
X175850000Y-126450000I450000J0D01*
G01*
G37*
D11*
X176425000Y-129850000D03*
X176425000Y-132350000D03*
X176425000Y-134850000D03*
%TD*%
%TO.C,J2*%
G36*
G01*
X206650000Y-97325000D02*
X205500000Y-97325000D01*
G75*
G02*
X205050000Y-96875000I0J450000D01*
G01*
X205050000Y-95975000D01*
G75*
G02*
X205500000Y-95525000I450000J0D01*
G01*
X206650000Y-95525000D01*
G75*
G02*
X207100000Y-95975000I0J-450000D01*
G01*
X207100000Y-96875000D01*
G75*
G02*
X206650000Y-97325000I-450000J0D01*
G01*
G37*
X206075000Y-98925000D03*
X206075000Y-101425000D03*
X206075000Y-103925000D03*
%TD*%
%TO.C,C1*%
G36*
G01*
X205230677Y-109750000D02*
X203319323Y-109750000D01*
G75*
G02*
X203050000Y-109480677I0J269323D01*
G01*
X203050000Y-108594323D01*
G75*
G02*
X203319323Y-108325000I269323J0D01*
G01*
X205230677Y-108325000D01*
G75*
G02*
X205500000Y-108594323I0J-269323D01*
G01*
X205500000Y-109480677D01*
G75*
G02*
X205230677Y-109750000I-269323J0D01*
G01*
G37*
G36*
G01*
X205231134Y-112825000D02*
X203318866Y-112825000D01*
G75*
G02*
X203050000Y-112556134I0J268866D01*
G01*
X203050000Y-111668866D01*
G75*
G02*
X203318866Y-111400000I268866J0D01*
G01*
X205231134Y-111400000D01*
G75*
G02*
X205500000Y-111668866I0J-268866D01*
G01*
X205500000Y-112556134D01*
G75*
G02*
X205231134Y-112825000I-268866J0D01*
G01*
G37*
%TD*%
D12*
%TO.C,U2*%
X192913803Y-98735813D03*
X190373803Y-98735813D03*
X192913803Y-96195813D03*
X190373803Y-96195813D03*
D13*
X192925000Y-113200000D03*
X190375000Y-113200000D03*
D14*
X183508120Y-96882180D03*
X183508120Y-99422180D03*
X183508120Y-101962180D03*
X183508120Y-104502180D03*
X183508120Y-107042180D03*
X183508120Y-109582180D03*
X183508120Y-112122180D03*
X199672680Y-112122180D03*
X199672680Y-109582180D03*
X199672680Y-107042180D03*
X199672680Y-104502180D03*
X199672680Y-101962180D03*
X199672680Y-99422180D03*
X199672680Y-96882180D03*
%TD*%
%TO.C,U3*%
G36*
G01*
X188325000Y-122325000D02*
X188325000Y-120825000D01*
G75*
G02*
X188375000Y-120775000I50000J0D01*
G01*
X190375000Y-120775000D01*
G75*
G02*
X190425000Y-120825000I0J-50000D01*
G01*
X190425000Y-122325000D01*
G75*
G02*
X190375000Y-122375000I-50000J0D01*
G01*
X188375000Y-122375000D01*
G75*
G02*
X188325000Y-122325000I0J50000D01*
G01*
G37*
G36*
G01*
X188325000Y-126925000D02*
X188325000Y-125425000D01*
G75*
G02*
X188375000Y-125375000I50000J0D01*
G01*
X190375000Y-125375000D01*
G75*
G02*
X190425000Y-125425000I0J-50000D01*
G01*
X190425000Y-126925000D01*
G75*
G02*
X190375000Y-126975000I-50000J0D01*
G01*
X188375000Y-126975000D01*
G75*
G02*
X188325000Y-126925000I0J50000D01*
G01*
G37*
G36*
G01*
X188325000Y-124625000D02*
X188325000Y-123125000D01*
G75*
G02*
X188375000Y-123075000I50000J0D01*
G01*
X190375000Y-123075000D01*
G75*
G02*
X190425000Y-123125000I0J-50000D01*
G01*
X190425000Y-124625000D01*
G75*
G02*
X190375000Y-124675000I-50000J0D01*
G01*
X188375000Y-124675000D01*
G75*
G02*
X188325000Y-124625000I0J50000D01*
G01*
G37*
G36*
G01*
X194625000Y-125775000D02*
X194625000Y-121975000D01*
G75*
G02*
X194675000Y-121925000I50000J0D01*
G01*
X196675000Y-121925000D01*
G75*
G02*
X196725000Y-121975000I0J-50000D01*
G01*
X196725000Y-125775000D01*
G75*
G02*
X196675000Y-125825000I-50000J0D01*
G01*
X194675000Y-125825000D01*
G75*
G02*
X194625000Y-125775000I0J50000D01*
G01*
G37*
%TD*%
D15*
%TO.C,SW1*%
X184250000Y-138850000D03*
X184250000Y-133850000D03*
X196750000Y-138850000D03*
X196750000Y-133850000D03*
%TD*%
D11*
%TO.C,RV1*%
X202400000Y-133625000D03*
X202400000Y-136125000D03*
G36*
G01*
X203160295Y-139525000D02*
X201639705Y-139525000D01*
G75*
G02*
X201375000Y-139260295I0J264705D01*
G01*
X201375000Y-137989705D01*
G75*
G02*
X201639705Y-137725000I264705J0D01*
G01*
X203160295Y-137725000D01*
G75*
G02*
X203425000Y-137989705I0J-264705D01*
G01*
X203425000Y-139260295D01*
G75*
G02*
X203160295Y-139525000I-264705J0D01*
G01*
G37*
%TD*%
%TO.C,R2*%
G36*
G01*
X177675000Y-105600611D02*
X177675000Y-104649389D01*
G75*
G02*
X177949389Y-104375000I274389J0D01*
G01*
X178525611Y-104375000D01*
G75*
G02*
X178800000Y-104649389I0J-274389D01*
G01*
X178800000Y-105600611D01*
G75*
G02*
X178525611Y-105875000I-274389J0D01*
G01*
X177949389Y-105875000D01*
G75*
G02*
X177675000Y-105600611I0J274389D01*
G01*
G37*
G36*
G01*
X175850000Y-105600611D02*
X175850000Y-104649389D01*
G75*
G02*
X176124389Y-104375000I274389J0D01*
G01*
X176700611Y-104375000D01*
G75*
G02*
X176975000Y-104649389I0J-274389D01*
G01*
X176975000Y-105600611D01*
G75*
G02*
X176700611Y-105875000I-274389J0D01*
G01*
X176124389Y-105875000D01*
G75*
G02*
X175850000Y-105600611I0J274389D01*
G01*
G37*
%TD*%
%TO.C,R1*%
G36*
G01*
X177600000Y-111675611D02*
X177600000Y-110724389D01*
G75*
G02*
X177874389Y-110450000I274389J0D01*
G01*
X178450611Y-110450000D01*
G75*
G02*
X178725000Y-110724389I0J-274389D01*
G01*
X178725000Y-111675611D01*
G75*
G02*
X178450611Y-111950000I-274389J0D01*
G01*
X177874389Y-111950000D01*
G75*
G02*
X177600000Y-111675611I0J274389D01*
G01*
G37*
G36*
G01*
X175775000Y-111675611D02*
X175775000Y-110724389D01*
G75*
G02*
X176049389Y-110450000I274389J0D01*
G01*
X176625611Y-110450000D01*
G75*
G02*
X176900000Y-110724389I0J-274389D01*
G01*
X176900000Y-111675611D01*
G75*
G02*
X176625611Y-111950000I-274389J0D01*
G01*
X176049389Y-111950000D01*
G75*
G02*
X175775000Y-111675611I0J274389D01*
G01*
G37*
%TD*%
%TO.C,Q1*%
G36*
G01*
X177650000Y-107725000D02*
X176850000Y-107725000D01*
G75*
G02*
X176800000Y-107675000I0J50000D01*
G01*
X176800000Y-106775000D01*
G75*
G02*
X176850000Y-106725000I50000J0D01*
G01*
X177650000Y-106725000D01*
G75*
G02*
X177700000Y-106775000I0J-50000D01*
G01*
X177700000Y-107675000D01*
G75*
G02*
X177650000Y-107725000I-50000J0D01*
G01*
G37*
G36*
G01*
X178600000Y-109725000D02*
X177800000Y-109725000D01*
G75*
G02*
X177750000Y-109675000I0J50000D01*
G01*
X177750000Y-108775000D01*
G75*
G02*
X177800000Y-108725000I50000J0D01*
G01*
X178600000Y-108725000D01*
G75*
G02*
X178650000Y-108775000I0J-50000D01*
G01*
X178650000Y-109675000D01*
G75*
G02*
X178600000Y-109725000I-50000J0D01*
G01*
G37*
G36*
G01*
X176700000Y-109725000D02*
X175900000Y-109725000D01*
G75*
G02*
X175850000Y-109675000I0J50000D01*
G01*
X175850000Y-108775000D01*
G75*
G02*
X175900000Y-108725000I50000J0D01*
G01*
X176700000Y-108725000D01*
G75*
G02*
X176750000Y-108775000I0J-50000D01*
G01*
X176750000Y-109675000D01*
G75*
G02*
X176700000Y-109725000I-50000J0D01*
G01*
G37*
%TD*%
%TO.C,J1*%
X172275000Y-102025000D03*
X172275000Y-99525000D03*
G36*
G01*
X171514705Y-96125000D02*
X173035295Y-96125000D01*
G75*
G02*
X173300000Y-96389705I0J-264705D01*
G01*
X173300000Y-97660295D01*
G75*
G02*
X173035295Y-97925000I-264705J0D01*
G01*
X171514705Y-97925000D01*
G75*
G02*
X171250000Y-97660295I0J264705D01*
G01*
X171250000Y-96389705D01*
G75*
G02*
X171514705Y-96125000I264705J0D01*
G01*
G37*
%TD*%
%TO.C,C6*%
G36*
G01*
X185225000Y-127025000D02*
X185225000Y-126025000D01*
G75*
G02*
X185500000Y-125750000I275000J0D01*
G01*
X186050000Y-125750000D01*
G75*
G02*
X186325000Y-126025000I0J-275000D01*
G01*
X186325000Y-127025000D01*
G75*
G02*
X186050000Y-127300000I-275000J0D01*
G01*
X185500000Y-127300000D01*
G75*
G02*
X185225000Y-127025000I0J275000D01*
G01*
G37*
G36*
G01*
X183325000Y-127025000D02*
X183325000Y-126025000D01*
G75*
G02*
X183600000Y-125750000I275000J0D01*
G01*
X184150000Y-125750000D01*
G75*
G02*
X184425000Y-126025000I0J-275000D01*
G01*
X184425000Y-127025000D01*
G75*
G02*
X184150000Y-127300000I-275000J0D01*
G01*
X183600000Y-127300000D01*
G75*
G02*
X183325000Y-127025000I0J275000D01*
G01*
G37*
%TD*%
%TO.C,C5*%
G36*
G01*
X185706134Y-121575000D02*
X183793866Y-121575000D01*
G75*
G02*
X183525000Y-121306134I0J268866D01*
G01*
X183525000Y-120418866D01*
G75*
G02*
X183793866Y-120150000I268866J0D01*
G01*
X185706134Y-120150000D01*
G75*
G02*
X185975000Y-120418866I0J-268866D01*
G01*
X185975000Y-121306134D01*
G75*
G02*
X185706134Y-121575000I-268866J0D01*
G01*
G37*
G36*
G01*
X185706134Y-124650000D02*
X183793866Y-124650000D01*
G75*
G02*
X183525000Y-124381134I0J268866D01*
G01*
X183525000Y-123493866D01*
G75*
G02*
X183793866Y-123225000I268866J0D01*
G01*
X185706134Y-123225000D01*
G75*
G02*
X185975000Y-123493866I0J-268866D01*
G01*
X185975000Y-124381134D01*
G75*
G02*
X185706134Y-124650000I-268866J0D01*
G01*
G37*
%TD*%
%TO.C,C4*%
G36*
G01*
X169818866Y-109050000D02*
X171731134Y-109050000D01*
G75*
G02*
X172000000Y-109318866I0J-268866D01*
G01*
X172000000Y-110206134D01*
G75*
G02*
X171731134Y-110475000I-268866J0D01*
G01*
X169818866Y-110475000D01*
G75*
G02*
X169550000Y-110206134I0J268866D01*
G01*
X169550000Y-109318866D01*
G75*
G02*
X169818866Y-109050000I268866J0D01*
G01*
G37*
G36*
G01*
X169818866Y-105975000D02*
X171731134Y-105975000D01*
G75*
G02*
X172000000Y-106243866I0J-268866D01*
G01*
X172000000Y-107131134D01*
G75*
G02*
X171731134Y-107400000I-268866J0D01*
G01*
X169818866Y-107400000D01*
G75*
G02*
X169550000Y-107131134I0J268866D01*
G01*
X169550000Y-106243866D01*
G75*
G02*
X169818866Y-105975000I268866J0D01*
G01*
G37*
%TD*%
%TO.C,C3*%
G36*
G01*
X165318866Y-109050000D02*
X167231134Y-109050000D01*
G75*
G02*
X167500000Y-109318866I0J-268866D01*
G01*
X167500000Y-110206134D01*
G75*
G02*
X167231134Y-110475000I-268866J0D01*
G01*
X165318866Y-110475000D01*
G75*
G02*
X165050000Y-110206134I0J268866D01*
G01*
X165050000Y-109318866D01*
G75*
G02*
X165318866Y-109050000I268866J0D01*
G01*
G37*
G36*
G01*
X165318866Y-105975000D02*
X167231134Y-105975000D01*
G75*
G02*
X167500000Y-106243866I0J-268866D01*
G01*
X167500000Y-107131134D01*
G75*
G02*
X167231134Y-107400000I-268866J0D01*
G01*
X165318866Y-107400000D01*
G75*
G02*
X165050000Y-107131134I0J268866D01*
G01*
X165050000Y-106243866D01*
G75*
G02*
X165318866Y-105975000I268866J0D01*
G01*
G37*
%TD*%
%TO.C,C2*%
G36*
G01*
X204675000Y-114925000D02*
X204675000Y-113925000D01*
G75*
G02*
X204950000Y-113650000I275000J0D01*
G01*
X205500000Y-113650000D01*
G75*
G02*
X205775000Y-113925000I0J-275000D01*
G01*
X205775000Y-114925000D01*
G75*
G02*
X205500000Y-115200000I-275000J0D01*
G01*
X204950000Y-115200000D01*
G75*
G02*
X204675000Y-114925000I0J275000D01*
G01*
G37*
G36*
G01*
X202775000Y-114925000D02*
X202775000Y-113925000D01*
G75*
G02*
X203050000Y-113650000I275000J0D01*
G01*
X203600000Y-113650000D01*
G75*
G02*
X203875000Y-113925000I0J-275000D01*
G01*
X203875000Y-114925000D01*
G75*
G02*
X203600000Y-115200000I-275000J0D01*
G01*
X203050000Y-115200000D01*
G75*
G02*
X202775000Y-114925000I0J275000D01*
G01*
G37*
%TD*%
M02*
